REM DIRINDEX 1\2\4,1\2\5,1\2\6,1\3\7,1\3\8,1\3\9,1\3\10
REM DIRNAME folder01,folder02,folder03,folder04,folder05,folder06,folder07,folder08,folder09,folder10
TITLE ""
FILE "b_144.mp3" MP3
  TRACK 01 AUDIO
    TITLE "0:"
    INDEX 01 00:00:00
  TRACK 02 AUDIO
    TITLE "7:cjc057_08752"
    INDEX 01 00:00:15
  TRACK 03 AUDIO
    TITLE "0:"
    INDEX 01 00:01:40
  TRACK 04 AUDIO
    TITLE "8:cjc057_08753"
    INDEX 01 00:01:71
  TRACK 05 AUDIO
    TITLE "0:"
    INDEX 01 00:04:23
  TRACK 06 AUDIO
    TITLE "9:cjc057_08754"
    INDEX 01 00:04:62
  TRACK 07 AUDIO
    TITLE "0:"
    INDEX 01 00:08:60
  TRACK 08 AUDIO
    TITLE "7:cjc057_08755"
    INDEX 01 00:09:61
  TRACK 09 AUDIO
    TITLE "0:"
    INDEX 01 00:11:07
  TRACK 10 AUDIO
    TITLE "8:cjc057_08756"
    INDEX 01 00:11:39
  TRACK 11 AUDIO
    TITLE "0:"
    INDEX 01 00:12:73
  TRACK 12 AUDIO
    TITLE "9:cjc057_08757"
    INDEX 01 00:13:43
  TRACK 13 AUDIO
    TITLE "0:"
    INDEX 01 00:18:52
  TRACK 14 AUDIO
    TITLE "7:cjc057_08758"
    INDEX 01 00:19:60
  TRACK 15 AUDIO
    TITLE "0:"
    INDEX 01 00:21:09
  TRACK 16 AUDIO
    TITLE "8:cjc057_08759"
    INDEX 01 00:21:39
  TRACK 17 AUDIO
    TITLE "0:"
    INDEX 01 00:22:74
  TRACK 18 AUDIO
    TITLE "9:cjc057_08760"
    INDEX 01 00:23:46
  TRACK 19 AUDIO
    TITLE "0:"
    INDEX 01 00:27:28
  TRACK 20 AUDIO
    TITLE "7:cjc057_08761"
    INDEX 01 00:28:31
  TRACK 21 AUDIO
    TITLE "0:"
    INDEX 01 00:29:46
  TRACK 22 AUDIO
    TITLE "8:cjc057_08762"
    INDEX 01 00:29:74
  TRACK 23 AUDIO
    TITLE "0:"
    INDEX 01 00:31:29
  TRACK 24 AUDIO
    TITLE "9:cjc057_08763"
    INDEX 01 00:31:73
  TRACK 25 AUDIO
    TITLE "0:"
    INDEX 01 00:35:74
  TRACK 26 AUDIO
    TITLE "7:cjc057_08764"
    INDEX 01 00:37:05
  TRACK 27 AUDIO
    TITLE "0:"
    INDEX 01 00:38:14
  TRACK 28 AUDIO
    TITLE "8:cjc057_08765"
    INDEX 01 00:38:45
  TRACK 29 AUDIO
    TITLE "0:"
    INDEX 01 00:41:06
  TRACK 30 AUDIO
    TITLE "9:cjc057_08766"
    INDEX 01 00:41:44
  TRACK 31 AUDIO
    TITLE "0:"
    INDEX 01 00:45:41
  TRACK 32 AUDIO
    TITLE "7:cjc057_08767"
    INDEX 01 00:46:47
  TRACK 33 AUDIO
    TITLE "0:"
    INDEX 01 00:47:62
  TRACK 34 AUDIO
    TITLE "8:cjc057_08768"
    INDEX 01 00:48:14
  TRACK 35 AUDIO
    TITLE "0:"
    INDEX 01 00:50:33
  TRACK 36 AUDIO
    TITLE "9:cjc057_08769"
    INDEX 01 00:51:05
  TRACK 37 AUDIO
    TITLE "0:"
    INDEX 01 00:54:19
  TRACK 38 AUDIO
    TITLE "7:cjc057_08770"
    INDEX 01 00:55:26
  TRACK 39 AUDIO
    TITLE "0:"
    INDEX 01 00:56:43
  TRACK 40 AUDIO
    TITLE "8:cjc057_08771"
    INDEX 01 00:56:74
  TRACK 41 AUDIO
    TITLE "0:"
    INDEX 01 00:58:28
  TRACK 42 AUDIO
    TITLE "9:cjc057_08772"
    INDEX 01 00:58:73
  TRACK 43 AUDIO
    TITLE "0:"
    INDEX 01 01:02:54
  TRACK 44 AUDIO
    TITLE "7:cjc057_08773"
    INDEX 01 01:03:57
  TRACK 45 AUDIO
    TITLE "0:"
    INDEX 01 01:05:05
  TRACK 46 AUDIO
    TITLE "8:cjc057_08774"
    INDEX 01 01:05:34
  TRACK 47 AUDIO
    TITLE "0:"
    INDEX 01 01:06:51
  TRACK 48 AUDIO
    TITLE "9:cjc057_08775"
    INDEX 01 01:07:15
  TRACK 49 AUDIO
    TITLE "0:"
    INDEX 01 01:10:47
  TRACK 50 AUDIO
    TITLE "7:cjc057_08776"
    INDEX 01 01:11:54
  TRACK 51 AUDIO
    TITLE "0:"
    INDEX 01 01:13:10
  TRACK 52 AUDIO
    TITLE "8:cjc057_08777"
    INDEX 01 01:13:40
  TRACK 53 AUDIO
    TITLE "0:"
    INDEX 01 01:16:20
  TRACK 54 AUDIO
    TITLE "9:cjc057_08778"
    INDEX 01 01:16:61
  TRACK 55 AUDIO
    TITLE "0:"
    INDEX 01 01:21:61
  TRACK 56 AUDIO
    TITLE "7:cjc057_08779"
    INDEX 01 01:22:70
  TRACK 57 AUDIO
    TITLE "0:"
    INDEX 01 01:24:08
  TRACK 58 AUDIO
    TITLE "8:cjc057_08780"
    INDEX 01 01:24:36
  TRACK 59 AUDIO
    TITLE "0:"
    INDEX 01 01:27:10
  TRACK 60 AUDIO
    TITLE "9:cjc057_08781"
    INDEX 01 01:27:53
  TRACK 61 AUDIO
    TITLE "0:"
    INDEX 01 01:30:56
  TRACK 62 AUDIO
    TITLE "7:cjc057_08782"
    INDEX 01 01:31:67
  TRACK 63 AUDIO
    TITLE "0:"
    INDEX 01 01:33:17
  TRACK 64 AUDIO
    TITLE "8:cjc057_08783"
    INDEX 01 01:33:46
  TRACK 65 AUDIO
    TITLE "0:"
    INDEX 01 01:34:67
  TRACK 66 AUDIO
    TITLE "9:cjc057_08784"
    INDEX 01 01:35:35
  TRACK 67 AUDIO
    TITLE "0:"
    INDEX 01 01:40:38
  TRACK 68 AUDIO
    TITLE "7:cjc057_08785"
    INDEX 01 01:41:44
  TRACK 69 AUDIO
    TITLE "0:"
    INDEX 01 01:42:67
  TRACK 70 AUDIO
    TITLE "8:cjc057_08786"
    INDEX 01 01:43:25
  TRACK 71 AUDIO
    TITLE "0:"
    INDEX 01 01:44:52
  TRACK 72 AUDIO
    TITLE "9:cjc057_08787"
    INDEX 01 01:45:18
  TRACK 73 AUDIO
    TITLE "0:"
    INDEX 01 01:49:06
  TRACK 74 AUDIO
    TITLE "7:cjc057_08788"
    INDEX 01 01:50:09
  TRACK 75 AUDIO
    TITLE "0:"
    INDEX 01 01:51:30
  TRACK 76 AUDIO
    TITLE "8:cjc057_08789"
    INDEX 01 01:51:60
  TRACK 77 AUDIO
    TITLE "0:"
    INDEX 01 01:54:44
  TRACK 78 AUDIO
    TITLE "9:cjc057_08790"
    INDEX 01 01:55:13
  TRACK 79 AUDIO
    TITLE "0:"
    INDEX 01 01:58:66
  TRACK 80 AUDIO
    TITLE "7:cjc057_08791"
    INDEX 01 01:59:73
  TRACK 81 AUDIO
    TITLE "0:"
    INDEX 01 02:01:13
  TRACK 82 AUDIO
    TITLE "8:cjc057_08792"
    INDEX 01 02:01:43
  TRACK 83 AUDIO
    TITLE "0:"
    INDEX 01 02:04:04
  TRACK 84 AUDIO
    TITLE "9:cjc057_08793"
    INDEX 01 02:04:49
  TRACK 85 AUDIO
    TITLE "0:"
    INDEX 01 02:07:33
  TRACK 86 AUDIO
    TITLE "7:cjc057_08794"
    INDEX 01 02:08:37
  TRACK 87 AUDIO
    TITLE "0:"
    INDEX 01 02:09:58
  TRACK 88 AUDIO
    TITLE "8:cjc057_08795"
    INDEX 01 02:10:12
  TRACK 89 AUDIO
    TITLE "0:"
    INDEX 01 02:11:19
  TRACK 90 AUDIO
    TITLE "9:cjc057_08796"
    INDEX 01 02:11:61
  TRACK 91 AUDIO
    TITLE "0:"
    INDEX 01 02:14:41
  TRACK 92 AUDIO
    TITLE "7:cjc057_08797"
    INDEX 01 02:15:47
  TRACK 93 AUDIO
    TITLE "0:"
    INDEX 01 02:16:60
  TRACK 94 AUDIO
    TITLE "8:cjc057_08798"
    INDEX 01 02:17:16
  TRACK 95 AUDIO
    TITLE "0:"
    INDEX 01 02:20:67
  TRACK 96 AUDIO
    TITLE "9:cjc057_08799"
    INDEX 01 02:21:35
  TRACK 97 AUDIO
    TITLE "0:"
    INDEX 01 02:24:10
